<?xml version="1.0" encoding="utf-8"?>
<!DOCTYPE svg PUBLIC "-//W3C//DTD SVG 20010904//EN" "http://www.w3.org/TR/2001/REC-SVG-20010904/DTD/svg10.dtd">
<svg height="369.000000pt" preserveAspectRatio="xMidYMid meet" version="1.0" viewBox="0 0 323.000000 369.000000" width="323.000000pt" xmlns="http://www.w3.org/2000/svg">
<g fill="#0B4C8B" stroke="none" transform="translate(0.000000,369.000000) scale(0.100000,-0.100000)">
<path d="M956 3561 c-51 -34 -55 -52 -56 -233 0 -164 0 -167 25 -197 53 -63 146 -63 199 0 26 30 26 33 26 196 0 135 -3 170 -16 193 -35 59 -121 78 -178 41z"/>
<path d="M2019 3563 c-53 -33 -59 -56 -59 -238 l0 -167 33 -33 c61 -61 154 -53 197 17 18 30 20 50 20 197 l0 163 -39 39 c-33 34 -45 39 -82 39 -24 0 -56 -8 -70 -17z"/>
<path d="M620 3321 c-104 -21 -213 -130 -209 -208 0 -10 5 -4 10 13 17 58 71 126 126 156 44 25 67 30 148 35 l95 6 0 -80 c0 -65 5 -88 25 -130 70 -141 254 -177 365 -72 55 52 74 97 78 191 l4 88 293 0 293 0 4 -88 c3 -78 7 -95 33 -138 80 -128 247 -153 353 -51 55 52 75 102 80 196 l5 84 96 -5 c113 -6 181 -34 228 -95 59 -77 58 -67 60 -467 2 -203 5 -371 8 -374 3 -3 5 154 5 350 0 420 -2 431 -84 514 -65 64 -122 84 -245 84 l-86 0 0 -88 c0 -81 -3 -93 -30 -137 -42 -68 -100 -107 -169 -113 -69 -6 -118 11 -169 57 -58 52 -77 100 -77 199 l0 82 -305 0 -305 0 0 -71 c0 -91 -15 -139 -57 -188 -85 -100 -227 -108 -322 -18 -53 50 -71 99 -71 195 l0 82 -72 -1 c-40 -1 -89 -4 -108 -8z"/>
<path d="M403 2735 c-1 -198 1 -351 5 -340 4 11 5 173 2 360 l-6 340 -1 -360z"/>
<path d="M939 2799 c-132 -19 -270 -86 -374 -180 -56 -52 -152 -176 -142 -185 2 -3 17 17 32 43 40 67 153 175 233 222 83 48 178 81 255 88 31 3 57 10 57 14 0 5 -1 8 -2 8 -2 -1 -28 -5 -59 -10z"/>
<path d="M1060 2799 c150 -27 180 -36 259 -74 80 -39 151 -89 211 -147 l25 -25 63 53 c239 203 516 244 772 114 106 -54 210 -145 270 -239 18 -28 35 -49 38 -46 8 8 -87 133 -135 175 -296 264 -678 258 -970 -13 l-32 -30 -53 45 c-146 123 -272 178 -438 191 l-65 6 55 -10z"/>
<path d="M870 2647 c-131 -44 -243 -133 -325 -257 -83 -126 -118 -245 -117 -400 2 -198 77 -358 280 -600 209 -249 632 -611 742 -635 l30 -7 0 -146 c0 -223 32 -324 129 -415 95 -89 195 -127 333 -127 134 0 236 32 331 105 l45 35 39 -17 c56 -24 175 -23 234 4 62 28 110 72 139 130 21 40 25 62 25 133 0 106 -27 166 -100 222 -62 47 -117 62 -208 56 -82 -5 -120 -22 -183 -80 -75 -69 -106 -205 -69 -295 14 -33 14 -38 -2 -55 -9 -10 -45 -33 -80 -50 -58 -28 -72 -31 -163 -31 -87 0 -105 3 -153 27 -71 34 -122 91 -141 157 -22 71 -23 349 -2 349 31 0 157 74 245 144 366 293 670 638 752 855 108 287 25 603 -206 790 -115 93 -222 131 -365 131 -155 -1 -276 -58 -427 -205 l-93 -90 -58 58 c-169 173 -299 237 -476 237 -67 0 -108 -6 -156 -23z m268 -142 c100 -30 225 -131 374 -303 20 -23 44 -42 53 -42 9 0 33 19 53 42 243 280 387 356 573 302 74 -22 137 -64 208 -139 171 -183 194 -432 61 -658 -68 -117 -167 -235 -345 -412 -182 -182 -348 -320 -446 -373 -72 -38 -123 -41 -189 -11 -90 41 -274 192 -471 389 -327 326 -429 491 -429 695 0 143 48 267 144 372 120 132 268 181 414 138z m1407 -1945 c91 -56 81 -184 -19 -234 -52 -25 -100 -15 -148 34 -34 34 -38 43 -38 88 0 40 5 57 27 82 14 18 36 36 47 40 38 15 98 11 131 -10z"/>
<path d="M1422 2027 c-6 -7 -13 -62 -14 -123 l-3 -109 -117 -3 c-109 -2 -119 -4 -129 -24 -15 -28 -6 -243 11 -263 9 -11 42 -15 123 -17 l112 -3 5 -117 c3 -64 8 -119 11 -123 12 -11 259 -12 274 -1 11 8 15 41 17 126 l3 115 118 5 c90 4 120 9 127 20 15 23 12 243 -2 263 -11 13 -34 17 -128 19 l-115 3 -5 120 -5 120 -136 3 c-104 2 -139 -1 -147 -11z"/>
</g>
</svg>